<svg id="图层_1" data-name="图层 1" xmlns="http://www.w3.org/2000/svg" viewBox="0 0 1296 1296"><defs><style>.cls-1{fill:#e1352f;}.cls-2{fill:#245b97;}.cls-3{fill:#1b1819;}.cls-4{fill:#e03731;}.cls-5{fill:#de3833;}.cls-6{fill:#1b191a;}.cls-7{fill:#1a1819;}.cls-8{fill:#1b1919;}.cls-9{fill:#cd4946;}.cls-10{fill:#a05b51;}</style></defs><title>huameng</title><path class="cls-1" d="M443.44,223.3c19.08,1.64,38,4.06,55.81,11.8,20.55,8.92,30.25,25.08,31.07,47,.34,9.32.12,18.66.12,28,0,37,.07,73.95-.05,110.93,0,3.64.72,4.73,4.62,4.72,45.64-.14,91.28-.05,136.92-.05,1.81,0,3.63-.28,5.45-.42,1.89-1.37,1-3.36,1-5.07q.09-61.7.09-123.37c0-6.61.82-7.41,7.56-7.41l162.82,0,179.31,0c34.12,2.87,65.92,11.48,90.32,37.57,13.44,14.38,20.1,31.83,22,51.32.81,8.32.77,16.63.77,25q0,106.23.13,212.46c0,4.85-1,6.57-6.24,6.53q-53.75-.37-107.48,0c-4.72,0-5.33-1.64-5.33-5.72q.13-109,0-218c0-10.11-2.64-19.19-11.32-25.36-6.34-4.5-13.85-5.66-21.38-5.7-29.16-.18-58.32-.11-87.48-.11-34.33,0-68.65.11-103-.11-4.82,0-6.09,1.21-6.06,6q.89,122.46,1.4,244.93c.05,8.58.39,6.95-6.84,6.95q-51.24,0-102.47-.16c-6-.33-7-3.79-6.88-9.28.35-19.82.13-39.66.09-59.49,0-5.66-.47-6-5.94-5a24.12,24.12,0,0,1-4,.07q-65.75,0-131.48.07c-2.16,0-5.09-1.6-6.56,1.66q0,97.54,0,195.11c-1.83,2-3.09-.64-4.83-.63a280.07,280.07,0,0,1-48.42-3.54c-9.53-1.61-19.14-3.21-28.61-5-12.21-2.33-24.21-6-36.05-9.89-4.4-1.44-9.64-1.8-12.93-5.95,0-3.83,0-7.66,0-11.48l-.06-464.08c0-6.83.21-13.66,0-20.48-.13-3.69,1-4.9,4.81-4.79,9.31.28,18.63.12,27.95.14l.36.09C436.12,224,439.8,223.41,443.44,223.3Z"/><path class="cls-2" d="M399.57,723.08c3.29,4.15,8.53,4.51,12.93,5.95,11.84,3.87,23.84,7.56,36.05,9.89,9.47,1.81,19.08,3.41,28.61,5a280.07,280.07,0,0,0,48.42,3.54c1.74,0,3,2.64,4.83.63,23.52.93,47-.6,70.3-3.08,34.15-3.61,67.75-10.18,100.4-21,41.94-13.88,81.08-33,113.45-63.81,18.11-17.26,32.33-37.1,38.18-62a85.91,85.91,0,0,0,1.9-19.82c0-51.49.07-103-.11-154.45,0-4.78,1.2-6.12,6-6.09q48.72.33,97.46,0c4.59,0,6.27.84,6.3,5.88.31,59.15.49,118.29-.17,177.44-.18,16-6,30.22-14.57,43.39-16.58,25.4-39,45-63.66,62C825.66,748,759.54,775.86,687.49,788.9c-45.71,8.27-92,8.93-138.35,8.92A404.63,404.63,0,0,1,423,778.13C363,758.6,309.06,728.41,261.48,687c-38.63-33.59-70.34-72.63-92.09-119.28a263.79,263.79,0,0,1-24.3-135c3.61-44.78,14.25-87.53,34.72-127.66,23.94-46.89,58.3-84.78,100.25-116.16,17.62-13.19,36.41-24.51,55.39-35.56q12.35-6.1,24.69-12.2c65.26-32.1,134.17-49.5,206.91-51.66,65.07-1.94,128.8,5.83,190.79,26.19,47.49,15.59,91.41,38,131.22,68.44,19,14.49,36.17,30.87,52.67,48,2.12,2.48,3.88,5.29,6.55,7.27l2.2,2.52c6,8.48,13.44,15.87,19.09,25.16a17.62,17.62,0,0,1-2.38.43q-73.85.85-147.68,1.73c-2.43,0-4-1.08-5.75-2.42-9.57-7.44-19.1-14.95-29.42-21.35a5.39,5.39,0,0,0-3.09-2.11,61.48,61.48,0,0,0-11.33-7.26l-1.36-.87a66.31,66.31,0,0,0-13.09-8l0,0c-5.32-4-11.33-6.79-17.19-9.8-11-5.66-21.95-11.57-33.83-15.36-13.7-6.5-28.19-10.76-42.76-14.71-37.58-10.19-76-13.59-114.73-11.81-43.27,2-86.41,6.16-127.93,19.3-65.64,20.78-120.43,57.94-163.77,111.67-24.83,30.77-42.56,65-50.94,103.85-9,41.64-4.64,82.54,8.56,122.5,25.05,75.8,73.51,132.39,143,171.29a293.75,293.75,0,0,0,39.28,18.3,28.9,28.9,0,0,0,3.33.82Z"/><path class="cls-3" d="M1138.59,1149c-2.17,5.17-5.88,9.28-9.5,13.38-15,17-33.24,25.92-56.29,21.93-10.42-1.8-19-7.7-27.34-13.89-14.3-10.66-26.49-23.82-40.8-34.5-13.08-9.76-26.46-19-42.36-25.53.4,8.38.84,16.27.09,24.13-1.7,17.65-6.82,33.92-19.35,47.09-15.91,16.73-40.71,22.3-59.9,13.51-4.11-1.88-8-4.1-10.6-8-4.48-6.86-1.55-13,6.61-13.84,1-.1,2-.08,3-.12,21-.66,32.17-10.68,35.11-31.41.39-2.8.61-5.63.93-8.44.23-2,.54-4.07-1.43-5.46s-3.5.11-5.07.85c-18.32,8.72-36.53,17.67-55,26.16-26.91,12.42-54.4,23.26-83.57,29.25-8.7,1.79-17.34,2.86-26.25,1.35-16.79-2.84-26-16.82-29.35-31.59-1.42-6.33,2.37-9.86,9.33-9.52a400.15,400.15,0,0,0,53.42-.91,352.13,352.13,0,0,0,104.28-25.28c6.91-2.82,14.12-5,20.41-9.18,4.23-2.82,7.9-6.08,9.49-12.24-15.65,5.2-30.31,10.46-44.51,16.94s-29.1,11.31-44.79,13.18c-6.61.79-12.92.41-18.79-3.09a15.44,15.44,0,0,1-6.18-6.33c-2.77-5.51-.14-10.31,5.89-11.14,22.91-3.14,45.73-6.76,67.77-14a106.94,106.94,0,0,0,19.64-8.55c3.27-1.88,5.48-4.42,3.6-8.09-1.74-3.4-5.27-3.11-8.4-2-15.87,5.43-31.72,11-47.57,16.46-12.47,4.32-25.15,7.59-38.48,7.51a39,39,0,0,1-12.75-2c-7.2-2.51-10.31-8.1-11.41-15-.78-5,2.3-7.52,8.61-7.68,13.15-.33,26.3-.77,39.37-2.52,22.37-3,44.08-8.34,64.54-18.13,1.77-.84,4-1.37,3.37-4.1-.62-2.53-2.72-2.54-4.79-2.47-18.14.61-36.23,2-54.24,4.36-1.64.22-3.32.27-5,.35-9.09.47-11.58-2.81-7.81-12.58,2.39-6.21,15.13-15,23.24-12,14,5.24,28.27,2.88,42.39,2.17,37.2-1.87,74.27-.49,111.3,3,3,.28,6,.29,9,.63,2.33.27,5.18-.11,5.71,3.37s0,6.68-3.48,8.58-6.94,2.15-10.65,2.15c-17.16,0-34.33.2-51.49-.08-11.1-.19-19.61,5-28.62,11.86,15.06,4.94,26.75,13.76,37.34,24.17,1.7,1.68,3.52,1.49,5.53,1.28,16.24-1.67,27.5-11,36.25-23.88,7.47-11,8.7-12.69,25-5.92,7.39,3.08,11.59,11.63,10.19,19.35-.52,2.87-3,4.31-5.32,5.62-10.28,5.75-21.66,8.34-32.93,11.22-2.82.72-5.65,1.41-9.43,2.35,14.4,6.8,28.17,12.56,42.08,18,29.49,11.51,59.43,21.46,90.88,26.1,4,.59,7.92,1.1,11.9,1.44"/><path class="cls-4" d="M1136.42,643.35c-4,10.54-10.34,19.68-17.25,28.41-21,26.47-47.59,46.34-76.44,63.31C994,763.75,941.31,782.34,886.49,795.36A759.69,759.69,0,0,1,797.05,811a944.16,944.16,0,0,1-156.64,4.47c-30.11-1.58-60.08-4.55-90-8.41a14.14,14.14,0,0,1-4.74-1.5c22.15,0,44.31.12,66.46,0a941.08,941.08,0,0,0,120-8.4c44.26-6,87.73-15.49,129.62-31.38,47.41-18,90.18-43.17,125-80.65a274.35,274.35,0,0,0,31.54-41.69c2.14-.1,2.1-1.57,2-3.1l.61-1c3.13.11,5.55-2.09,8.89-2.06q50.33.35,100.64,0C1135.42,637.19,1137.08,638.75,1136.42,643.35Z"/><path class="cls-5" d="M881.14,162.45A467.17,467.17,0,0,0,728.63,91.62a479.4,479.4,0,0,0-95-14.75,565.16,565.16,0,0,0-115.08,5.26c-11,1.65-22,3.53-33,5.3-6.66-1.26-12.92,1.32-19.36,2.1-2,.24.48,1.19.31,1.9h0c-2.68.68-6.18-2-8.06,2a.44.44,0,0,1-.64.1c-2.86-.65-6.06.81-8.84-1.52,5.54.49,9.59-3,14.19-4.85a34.41,34.41,0,0,0,4.88-2c4.57-2.91,9.89-1.56,14.76-3.28,4.3-1.53,9-4.74,13.13-4.19,13.52,1.8,24.92-6.51,37.9-6.82,2.58-.07,5.29-1.72,8.19-1.53a2,2,0,0,0,2.45-1.87c16.72-3.28,33.7-4.11,50.64-5a545.93,545.93,0,0,1,112.51,5.8c68.35,10.4,132.81,32.45,193.94,64.63,49.72,26.16,95.14,58.47,137.35,95.36,16.14,14.11,31.51,29.1,46.34,44.62.9.94,2,1.74,3,2.61.22.91.87,2.45.6,2.64-1.49,1-2.84-.35-4.14-.83-29.29-10.76-59.16-16.89-90.5-11.87a5.38,5.38,0,0,1-5.61-2.17q-6.6-8.13-13.55-16"/><path class="cls-6" d="M939.65,992.36c-21.73,1-41.23.33-60.71.81-23.81.58-47.53,2.32-71,6.71-7,1.31-10.71,5.36-12.61,11.79a79.49,79.49,0,0,0-3,21.69c0,2.65.15,5.32-.74,7.92-1.34,3.9-2.9,7.59-7.75,8-5.1.43-8.72-2-10.79-6.47a84.85,84.85,0,0,1-7.35-24.78c-1.51-11.54-.84-22.92,4.18-33.72,4.84-10.42,15.6-15.54,25.9-10.61,9,4.31,18,4,27.28,3.45,10.46-.66,20.88-1.91,31.31-3,4.12-.41,7.51-3.61,7.14-7-.45-4.08-3.2-6.16-7.13-6.35-12.17-.6-24.3-.64-36,3.53-7,2.48-14.28,3.08-21.63,3.19-6,.1-9.44-2.46-10.92-8.09-1.3-4.93.68-9.32,5.69-12,6.19-3.33,13-3.93,19.87-4,11.32-.15,22.66-.23,34,.24,5.52.24,8.54-2.07,10.1-6.84,1.88-5.74,4.25-11.07,10.8-12.55,8.46-1.92,16.9-1.87,24.73,2.41,3,1.67,4.38,4.75,5.06,8.21,1.36,6.95,3.46,8.59,10.52,8.6q20.49,0,41,0c6.49,0,7.56-1.12,7.82-7.39.5-11.7,5.58-16.62,17.21-16.43,5.33.09,10.63.68,15.63,2.81a18.27,18.27,0,0,1,11.12,13.2c1.5,6.31,3.06,7.79,9.46,7.84,11.82.09,23.65.05,35.48,0a23.21,23.21,0,0,1,11.1,2.35c4.58,2.4,6,6.26,5.32,11.27-.65,4.78-4.29,5.67-7.92,6.11-15.43,1.85-30.94.47-46.41.77a9.7,9.7,0,0,0-7.46,3.23c-1.12,1.21-2.37,2.58-1.79,4.4.63,2,2.44,2.34,4.35,2.66a250.79,250.79,0,0,0,35.77,3.11,65.24,65.24,0,0,0,17.77-1.68c14.78-3.81,25.23,4.49,26.32,20.26a109.57,109.57,0,0,1-2.44,30.28c-1.74,8.27-2,16.88-5.51,24.76-2.86,6.43-5.76,8.52-11.57,8.26-6.29-.29-9.31-2.87-10.49-9.15-1.82-9.76-1-19.63-.78-29.41.26-11.59-5.08-18.9-15.34-23.2-9.22-3.87-19-5-28.83-5.14C983.38,992.18,960.39,992.36,939.65,992.36Zm-10.83-18.09c8.47,0,16.94.05,25.41,0,1.64,0,4.08,1.13,4.7-1.37a6.59,6.59,0,0,0-1.93-6.4,9.48,9.48,0,0,0-6.87-2.36c-14.78,0-29.56,0-44.34,0a13.2,13.2,0,0,0-4.37.75c-2.52.92-4.26,2.5-3.69,5.61.55,3,2.12,3.94,5.18,3.86C911.54,974.14,920.18,974.28,928.82,974.27Z"/><path class="cls-7" d="M439.75,1082.22q41,1.21,81.91,2.4c8.69.24,8.5,3.72,5,9.46-5.41,8.81-10.43,17.8-18.39,24.65-10.08,8.69-21.56,11.59-34.4,7.72-35.52-10.71-71.74-18.42-108.09-25.65-9.87-2-13.09,0-13.79,10-.91,13.13.18,26.29,1.05,39.42.53,8.13,1.62,16.23,2.38,24.35,1,11.14-3.26,18-13.81,22A33.57,33.57,0,0,1,326,1199c-10.78-1.1-16.43-7.23-16.63-18.09-.27-14,.94-28,1.31-41.94q.36-13.73.06-27.48c-.18-8.41-2.91-11.77-12.12-11.6-29.86.56-59.54,2.14-88.67,9.33-14.76,3.65-28.86,8.88-41.88,17-5.19,3.21-11.28,4.09-17.32,3.76-6.39-.35-9.83-4.2-10.3-10.68-1.16-15.87,13.64-33.84,30.45-37.1a62.91,62.91,0,0,1,13.42-.83c31.35.72,62.58-1.44,93.81-3.69,7.31-.53,14.62-1,21.93-1.45,7.06-.43,8.2-1.91,7.57-8.77-.36-4-.12-8-.1-12a6.81,6.81,0,0,1,4-6.43c8.65-3.91,17.44-5.34,26.24-.24,8,4.65,12.28,11.41,12.11,20.83-.14,8.13,1.6,9.55,12,9.92q36.45,1.29,72.9,2.55c1.66.06,3.33,0,5,0Z"/><path class="cls-8" d="M389.45,977.3c13.49-7.22,25.42-15.73,35.28-27,2.32-2.64,4.64-5.24,7.69-7.06a12.5,12.5,0,0,1,18,4.9c5.55,10.25,3.31,18.39-6.55,24.71-13.24,8.48-27.94,13.94-42,20.63a54.05,54.05,0,0,0-8,5.11c-4.89,3.51-5.5,8.51-4.17,13.84s5.25,8.22,10.42,8.74c28.76,2.86,56.27.55,79.28-19.85,3-2.64,7.28-5.5,10.81-3.16s2.21,7.6.92,11.06c-4.65,12.41-11.74,23.11-23.8,29.73-9.66,5.32-20.13,7.73-31,8.66-19.26,1.65-38.56,2.86-57.84.66-15.63-1.78-22.28-9.24-23.13-24.83-.6-11,1.76-16.11-15.24-13.07-9,1.62-18.26,1.36-27.42,1-4.35-.17-8.16-1.74-10.5-5.69-3.12-5.28-1.26-9.77,4.81-10.58,7.08-1,14.26-1.11,21.37-1.83,5.13-.52,10.24-1.25,15.31-2.16,6-1.07,8.21-4.39,8.12-10.56-.2-14.82-.35-29.65-.12-44.48.14-9.57,5.4-14.15,15-13.93,17.95.42,28.88,14.17,25.25,31.44C390.28,961.21,388.94,968.89,389.45,977.3Z"/><path class="cls-7" d="M232.55,1023c0-6.66,0-13.32,0-20,0-2-.08-4-2.3-5.1s-3.74.3-5.4,1.4c-9.35,6.21-19.22,11.15-30.42,13.15-15.17,2.71-27.48-2.3-37.46-13.6a84.44,84.44,0,0,1-6.85-9.2c-5-7.5-3.12-13.32,5.48-16.28,5.79-2,11.83-3.3,17.77-4.86a571.06,571.06,0,0,0,107.3-39.49c3.13-1.54,6.26-3.12,9.94-2.82,6.33.52,9.32,5.61,6.51,11.17a19.12,19.12,0,0,1-4.93,6.17A98.51,98.51,0,0,0,281.07,955a29.91,29.91,0,0,0-7.6,21c.24,18.81.1,37.63.06,56.44,0,16.57-17.6,28.34-33.14,22.25-5.58-2.19-7.61-6.67-7.7-12.24-.11-6.49,0-13,0-19.48Z"/><path class="cls-6" d="M923.84,1018.39H851.92c-1.67,0-3.34,0-5-.09-2.69-.17-5.82-.35-6.79-3.18-1.07-3.16,1-5.79,3.49-7.61a31.34,31.34,0,0,1,20.64-6.08c23.6,1.2,47.16,3.19,70.82,3.06,17.14-.1,34.29.19,51.43.33,5.19,0,10.3.53,15.13,2.63,3.35,1.45,5.71,3.72,5,7.65s-4.25,3.17-6.84,3.18c-25.31.09-50.61.06-75.92.06Z"/><path class="cls-9" d="M457.77,93.5c-7.47,3.2-15.57,4.18-23.25,6.63-12.26,3.9-24.57,7.64-36.85,11.45-1.33-.26-3,0-3.27-2C408,103.29,422.06,98,436.25,93.05a546.3,546.3,0,0,1,71.39-19.59c12.19-2.45,24.32-5.27,36.79-6A2,2,0,0,1,542,69.35c-2.9-.19-5.61,1.46-8.19,1.53-13,.31-24.38,8.62-37.9,6.82-4.17-.55-8.83,2.66-13.13,4.19-4.87,1.72-10.19.37-14.76,3.28a34.41,34.41,0,0,1-4.88,2c-4.6,1.86-8.65,5.34-14.19,4.85C451.71,94.31,454.91,92.85,457.77,93.5Z"/><path class="cls-10" d="M1028.19,289.38l-179.31,0-162.82,0c-6.74,0-7.56.8-7.56,7.41q0,61.68-.09,123.37c0,1.71.86,3.7-1,5.07q0-66.47-.1-132.92c0-3.31,1-4.33,4.24-4.25,7,.18,14,.06,21,.06q154.92,0,309.83.08C1017.63,288.21,1023,287.8,1028.19,289.38Z"/><path class="cls-10" d="M530.45,553c1.47-3.26,4.4-1.66,6.56-1.66q65.73-.18,131.48-.07a24.12,24.12,0,0,0,4-.07c5.47-.92,5.93-.62,5.94,5,0,19.83.26,39.67-.09,59.49-.09,5.49.84,8.95,6.88,9.28-7.94.62-7.9.62-7.89-7.28,0-20.14-.05-40.28.08-60.43,0-3.51-.76-4.91-4.68-4.9-45.94.13-91.89.07-137.83.09A37.26,37.26,0,0,0,530.45,553Z"/><path class="cls-10" d="M1136.42,643.35c.66-4.6-1-6.16-5.93-6.12q-50.33.35-100.64,0c-3.34,0-5.76,2.17-8.89,2.06.39-2.83,2.35-3.2,4.74-3.2q54.88,0,109.78,0C1140.13,636.12,1140.23,637.12,1136.42,643.35Z"/><path class="cls-10" d="M394.4,109.59c.27,2,1.94,1.73,3.27,2q-15.94,6.18-31.91,12.34c-1.05.41-2.22.79-3.09-.45,9.6-3.18,18.17-8.66,27.57-12.27Z"/><path class="cls-10" d="M1020.35,640.27c.14,1.53.18,3-2,3.1Z"/><path class="cls-9" d="M485.54,87.43a107.73,107.73,0,0,1-19.05,4c.17-.71-2.28-1.66-.31-1.9C472.62,88.75,478.88,86.17,485.54,87.43Z"/><path class="cls-9" d="M466.47,91.43a14.49,14.49,0,0,1-8.06,2C460.29,89.43,463.79,92.11,466.47,91.43Z"/></svg>