<?xml version="1.0" encoding="UTF-8"?>
<svg width="16px" height="16px" viewBox="0 0 16 16" version="1.1" xmlns="http://www.w3.org/2000/svg" xmlns:xlink="http://www.w3.org/1999/xlink">
    <!-- Generator: Sketch 60.1 (88133) - https://sketch.com -->
    <title>登录/用户名</title>
    <desc>Created with Sketch.</desc>
    <g id="登录/用户名" stroke="none" stroke-width="1" fill="none" fill-rule="evenodd" fill-opacity="0.6">
        <path d="M8.00038182,8.50932708 C6.63625457,8.50932708 5.375749,7.79369227 4.69368537,6.63199532 C4.01162173,5.47029837 4.01162173,4.0390287 4.69368537,2.87733175 C5.375749,1.7156348 6.63625457,1 8.00038182,1 C10.1091398,1 11.8186259,2.68102015 11.8186259,4.75466354 C11.8186259,6.82830693 10.1091398,8.50932708 8.00038182,8.50932708 L8.00038182,8.50932708 Z M8.00038182,7.25752226 C9.4060799,7.25752226 10.5456234,6.13695424 10.5456234,4.75466354 C10.5456234,3.37237284 9.4060799,2.25180482 8.00038182,2.25180482 C6.59468373,2.25180482 5.45514028,3.37237284 5.45514028,4.75466354 C5.45514028,6.13695424 6.59468373,7.25752226 8.00038182,7.25752226 Z M3.86369614,9.74245846 L12.1363039,9.74245846 C12.8962973,9.74086546 13.6256317,10.0370364 14.1630295,10.5654855 C14.7004272,11.0939347 15.0016135,11.8111244 14.9999935,12.5584626 L14.9999935,13.1839895 C15.0016135,13.9313277 14.7004272,14.6485174 14.1630295,15.1769665 C13.6256317,15.7054156 12.8962973,16.0015866 12.1363039,15.9999936 L3.86369614,15.9999936 C3.1037027,16.0015866 2.37436827,15.7054156 1.83697053,15.1769665 C1.29957278,14.6485174 0.998386525,13.9313277 1.0000065,13.1839895 L1.0000065,12.5584626 C0.998386525,11.8111244 1.29957278,11.0939347 1.83697053,10.5654855 C2.37436827,10.0370364 3.1037027,9.74086546 3.86369614,9.74245846 L3.86369614,9.74245846 Z M4.1821377,10.9935188 C3.1277587,10.9935188 2.27301564,11.8340289 2.27301564,12.8708506 C2.27301564,13.9076723 3.1277587,14.7481823 4.1821377,14.7481823 L11.8186259,14.7481823 C12.8730049,14.7481823 13.727748,13.9076723 13.727748,12.8708506 C13.727748,11.8340289 12.8730049,10.9935188 11.8186259,10.9935188 L4.1821377,10.9935188 L4.1821377,10.9935188 Z" id="形状" fill="#000000" fill-rule="nonzero"></path>
    </g>
</svg>