<?xml version="1.0" standalone="no"?><!DOCTYPE svg PUBLIC "-//W3C//DTD SVG 1.1//EN" "http://www.w3.org/Graphics/SVG/1.1/DTD/svg11.dtd"><svg t="1592968592620" class="icon" viewBox="0 0 1024 1024" version="1.1" xmlns="http://www.w3.org/2000/svg" p-id="10289" xmlns:xlink="http://www.w3.org/1999/xlink" width="200" height="200"><defs><style type="text/css"></style></defs><path d="M516.232906 229.534743c95.987145 0 174.148295 77.961606 174.148295 173.752276 0 94.900394-76.676333 172.214247-171.378206 173.655062-0.943488-0.101307-1.880837-0.202615-2.820232-0.202615l-7.28287 0.102331c-92.618421-3.865028-166.768211-80.239486-166.768211-173.553755C342.130659 307.496349 420.237575 229.534743 516.232906 229.534743zM519.002996 576.942081c3.221368 0.542352 6.14393 1.929955 8.469905 3.90903l-31.306007-3.463891c4.26207-0.251733 8.475022-0.446162 12.731976-0.546446 2.426259 0.101307 4.854565 0.149403 7.333012 0.149403L519.002996 576.942081zM533.614785 594.075297c0 5.601578-2.625804 10.601452-6.733355 13.823843-2.973728 2.273786-6.689353 3.613294-10.698666 3.613294-2.625804 0-5.204535 0-7.826246 0.101307 2.622734 0.097214 5.248537 0.145309 7.876388 0.145309 115.251907 0 208.964242-93.50665 208.964242-208.471009 0-114.959242-93.712335-208.472032-208.964242-208.472032-115.260094 0-208.971405 93.51279-208.971405 208.472032 0 80.83505 46.361911 151.066601 113.972774 185.642071l-1.736551 0.541329 2.578732 1.586125c-47.600111 14.859429-91.234911 41.114396-127.443577 77.264735-59.238173 59.039651-91.829452 137.548726-91.829452 221.153866 0 9.558703 7.826246 17.334807 17.437138 17.334807 9.606799 0 17.383926-7.777127 17.383926-17.334807 0-74.2951 28.972868-144.033417 81.622996-196.581214 50.719148-50.672076 117.634164-79.350233 189.108009-81.280188-5.552459-0.251733-10.997472-0.648776-16.396435-1.238201l34.921347-2.476401 6.139837-18.428721C533.417287 590.911234 533.614785 592.493266 533.614785 594.075297zM812.270273 906.809951c9.611915 0 17.383926-7.777127 17.383926-17.334807 0-83.60514-32.638351-162.114215-91.774193-221.201961-6.841825-6.732331-17.830087-6.732331-24.668843 0-6.733355 6.786567-6.733355 17.829064 0.048095 24.620747 52.606125 52.54882 81.58104 122.287137 81.58104 196.581214C794.839275 899.033847 802.664497 906.809951 812.270273 906.809951z" p-id="10290" fill="#515151"></path><path d="M1021.931387 511.460718c0-279.845593-226.599901-508.919848-510.160095-508.919848-234.030128 0-480.44226 163.447583-508.921895 479.202013l0 60.673871c0 32.19526 18.574031 111.442138 26.003234 133.731794 91.63093 247.650333 302.134225 345.472266 482.918661 345.472266C791.617907 1021.620813 1021.931387 795.020912 1021.931387 511.460718zM672.744519 59.498092c66.86692 24.765033 137.446395 64.389496 201.834868 138.683573 64.390519 73.056899 94.108355 153.544025 108.965737 227.838102 2.476401 16.09763 7.43125 45.815465 7.43125 49.530067l0 71.818699c-2.476401 21.050432-6.192026 42.101887-9.907651 63.151295-18.573008 102.775758-100.298334 246.412133-227.837078 315.75443-14.859429 7.429203-29.719882 14.859429-43.341111 22.288632-12.382005 4.952802-24.762987 11.143805-37.147038 14.858406-18.573008 6.192026-38.386262 12.384052-55.722092 16.09763-22.286586 4.953825-65.62565 11.143805-69.341275 11.143805L475.86143 990.662731c-22.288632-2.475378-45.814442-7.429203-68.104097-11.143805-101.536534-19.812231-241.459331-99.061157-310.801628-226.599901-7.429203-14.859429-14.858406-28.479635-21.049409-40.862663-4.952802-12.383028-11.144828-26.003234-16.09763-39.624463-6.191003-18.574031-12.382005-38.386262-16.09763-55.721069-3.714602-22.288632-9.905604-65.62872-9.905604-68.104097l0-73.057923c7.430226-126.301568 85.439928-298.4186 246.413156-383.858528 17.334807-8.667404 33.432437-17.334807 52.006468-24.765033 18.574031-7.429203 44.577265-16.096607 64.389496-21.049409 11.143805-2.476401 61.912072-12.379958 81.724303-12.379958l66.865897 0C577.398987 33.496905 651.695111 52.067866 672.744519 59.498092z" p-id="10291" fill="#515151"></path></svg>