<?xml version="1.0" encoding="UTF-8"?>
<svg width="16px" height="16px" viewBox="0 0 16 16" version="1.1" xmlns="http://www.w3.org/2000/svg" xmlns:xlink="http://www.w3.org/1999/xlink">
    <!-- Generator: Sketch 60.1 (88133) - https://sketch.com -->
    <title>登录/密码</title>
    <desc>Created with Sketch.</desc>
    <g id="登录/密码" stroke="none" stroke-width="1" fill="none" fill-rule="evenodd" fill-opacity="0.6">
        <path d="M12.7099501,5.63523131 L12.3804536,5.63523131 L12.3804536,4.27491469 C12.3814536,3.10586318 11.9446582,2.02896154 11.1504666,1.24253438 C10.3216404,0.433572552 9.17384571,-0.0160990145 7.98000024,0.000440680488 C5.49302659,0.000440680488 3.61744646,1.83807294 3.61744646,4.27482056 L3.61744646,5.63523131 L3.28744996,5.63523131 C2.01605379,5.64507132 0.992919893,6.62155263 1.00003691,7.81830793 L1.00003691,13.8188743 C0.992921041,15.0158118 2.01635798,15.9923688 3.28794996,16.0019509 L12.7119501,16.0019509 C13.9835812,15.9924204 15.0070788,15.0158482 14.9999631,13.8188743 L14.9999631,7.81830793 C15.0065783,6.62079499 13.9821558,5.64419394 12.7099501,5.63523131 Z M7.98000024,1.36631077 C9.69858203,1.36631077 10.9459688,2.58995566 10.9459688,4.27482056 L10.9459688,5.63523131 L5.05203126,5.63523131 L5.05203126,4.27482056 C5.05203126,2.58948503 6.28341822,1.36631077 7.98000024,1.36631077 Z M2.43453517,7.81830793 C2.43106275,7.37104898 2.81279733,7.00550024 3.28794996,7.00110139 L12.7119501,7.00110139 C13.1865678,7.00601509 13.567439,7.37155087 13.5634723,7.81830793 L13.5634723,13.8188743 C13.567439,14.2656313 13.1865678,14.6311671 12.7119501,14.6360808 L3.28794996,14.6360808 C2.81279733,14.6316819 2.43106275,14.2661332 2.43453517,13.8188743 L2.43453517,7.81830793 Z M7.28270763,10.7832936 L7.28270763,12.3187797 C7.27965596,12.562215 7.41588085,12.7883978 7.63936002,12.9109521 C7.86283919,13.0335065 8.13906084,13.0335065 8.36254001,12.9109521 C8.58601918,12.7883978 8.72224407,12.562215 8.71919241,12.3187797 L8.71919241,10.7834819 C9.04810111,10.5592401 9.24290879,10.2002049 9.24308686,9.81793195 C9.23727178,9.26562006 8.82164359,8.7924741 8.24641484,8.68333293 C7.67118609,8.57419177 7.09327985,8.85882921 6.86060175,9.36589054 C6.62792366,9.87295187 6.80394856,10.4641102 7.28270763,10.7834819 L7.28270763,10.7832936 Z" id="形状" fill="#000000" fill-rule="nonzero"></path>
    </g>
</svg>