<?xml version="1.0" encoding="UTF-8"?>
<svg width="39px" height="39px" viewBox="0 0 39 39" version="1.1" xmlns="http://www.w3.org/2000/svg" xmlns:xlink="http://www.w3.org/1999/xlink">
    <!-- Generator: Sketch 60.1 (88133) - https://sketch.com -->
    <title>登录/QQ</title>
    <desc>Created with Sketch.</desc>
    <g id="登录/QQ" stroke="none" stroke-width="1" fill="none" fill-rule="evenodd">
        <g id="qq备份" fill="#B2B3B4" fill-rule="nonzero">
            <path d="M19.5,0 C8.7286875,0 0,8.731125 0,19.5 C0,30.268875 8.7286875,39 19.5,39 C30.268875,39 39,30.268875 39,19.5 C39,8.731125 30.268875,0 19.5,0 L19.5,0 Z M30.23475,25.5766875 C29.7301875,26.0446875 28.864875,25.53525 28.036125,24.3871875 C27.675375,25.3573125 27.2025,26.2591875 26.661375,27.0635625 C27.83625,27.48525 28.5894375,28.1385 28.5894375,28.8770625 C28.5894375,30.151875 26.3323125,31.185375 23.54625,31.185375 C21.893625,31.185375 20.4335625,30.824625 19.50975,30.2615625 C18.5956875,30.8221875 17.1234375,31.185375 15.47325,31.185375 C12.68475,31.185375 10.4300625,30.151875 10.4300625,28.8770625 C10.4300625,28.14825 11.18325,27.48525 12.358125,27.0635625 C11.8048125,26.2591875 11.344125,25.35975 10.983375,24.3871875 C10.1521875,25.5279375 9.2893125,26.047125 8.78475,25.5766875 C8.097375,24.93075 8.35575,22.6468125 9.3819375,20.479875 C9.6159375,19.9850625 9.867,19.5414375 10.13025,19.153875 C10.2643125,12.8578125 14.4105,7.804875 19.5,7.804875 L19.514625,7.804875 C24.604125,7.804875 28.7503125,12.8505 28.8916875,19.153875 C29.1500625,19.5414375 29.406,19.9850625 29.64,20.479875 C30.654,22.6468125 30.9245625,24.9331875 30.23475,25.5766875 L30.23475,25.5766875 Z" id="形状"></path>
        </g>
    </g>
</svg>