<?xml version="1.0" encoding="UTF-8"?>
<svg width="39px" height="39px" viewBox="0 0 39 39" version="1.1" xmlns="http://www.w3.org/2000/svg" xmlns:xlink="http://www.w3.org/1999/xlink">
    <!-- Generator: Sketch 60.1 (88133) - https://sketch.com -->
    <title>登录/微信</title>
    <desc>Created with Sketch.</desc>
    <g id="登录/微信" stroke="none" stroke-width="1" fill="none" fill-rule="evenodd">
        <g id="微信备份" fill="#B2B3B4" fill-rule="nonzero">
            <path d="M19.5,0 C8.73041533,0 0,8.73045988 0,19.5 C0,30.2695401 8.73045988,39 19.5,39 C30.2695401,39 39,30.2695401 39,19.5 C39,8.73045988 30.2695847,0 19.5,0 Z M16.0032878,24.1647787 C14.9455743,24.1647787 14.0952407,23.9490643 13.0353433,23.7392777 L10.0733264,25.224587 L10.920763,22.6757701 C8.79963109,21.1936698 7.53025901,19.2828594 7.53025901,16.9559074 C7.53025901,12.9246336 11.3456401,9.74997766 16.0033324,9.74997766 C20.1694277,9.74997766 23.8193238,12.2863597 24.5524853,15.7001289 C24.2829314,15.6701339 24.0111937,15.6499441 23.7365144,15.6499441 C19.7117032,15.6499441 16.5328577,18.6540341 16.5328131,22.355675 C16.5328131,22.9712632 16.6287258,23.5646114 16.7942554,24.1310399 C16.5328131,24.1516754 16.2691425,24.1647787 16.0032878,24.1647787 Z M28.5018411,27.1325896 L29.1390453,29.2500223 L26.8149903,27.9773966 C25.9675537,28.1898128 25.116507,28.4025857 24.2726806,28.4025857 C20.241273,28.4025857 17.0660823,25.6471911 17.0660823,22.2539237 C17.0660823,18.8664504 20.2412285,16.1052618 24.2726806,16.1052618 C28.0799055,16.1052618 31.469741,18.8664504 31.469741,22.2539237 C31.469741,24.1647342 30.2025528,25.8566658 28.5018411,27.1325896 Z" id="形状"></path>
            <path d="M13.0934892,13.5 C12.5492465,13.5 12,13.896355 12,14.4984427 C12,15.0981733 12.5492847,15.5 13.0934892,15.5 C13.6377318,15.5 14,15.0981312 14,14.4984427 C14,13.896355 13.6377318,13.5 13.0934892,13.5 Z" id="路径"></path>
            <path d="M19.0907458,15.5 C19.6376662,15.5 20,15.0981312 20,14.4984427 C20,13.896313 19.6376662,13.5 19.0907458,13.5 C18.546309,13.5 18,13.896313 18,14.4984427 C18.0000382,15.0980891 18.546309,15.5 19.0907458,15.5 Z" id="路径"></path>
            <path d="M21.8882764,20 C21.4460536,20 21,20.5016038 21,20.9997371 C21,21.5048115 21.4460536,22 21.8882764,22 C22.5600196,22 23,21.5048115 23,20.9997371 C23,20.5016038 22.5600196,20 21.8882764,20 Z" id="路径"></path>
            <path d="M26.3849056,20 C25.9443507,20 25.5,20.5016038 25.5,20.9997371 C25.5,21.5048115 25.9443507,22 26.3849056,22 C27.0526501,22 27.5000468,21.5048115 27.5,20.9997371 C27.5,20.5016038 27.0526032,20 26.3849056,20 Z" id="路径"></path>
        </g>
    </g>
</svg>